<svg width="55" height="55" viewBox="0 0 55 55" fill="none" xmlns="http://www.w3.org/2000/svg">
<path d="M5.89307 13.0674C5.11642 13.0674 4.48682 13.697 4.48682 14.4736C4.48682 15.2503 5.11642 15.8799 5.89307 15.8799L5.89307 13.0674ZM10.8038 14.4736L12.1666 14.1268C12.008 13.5036 11.4469 13.0674 10.8038 13.0674L10.8038 14.4736ZM37.3216 40.9676C38.0983 40.9676 38.7279 40.338 38.7279 39.5614C38.7279 38.7847 38.0983 38.1551 37.3216 38.1551V40.9676ZM41.2502 18.3333L42.613 18.6801C42.7201 18.2594 42.6269 17.8129 42.3604 17.4702C42.094 17.1275 41.6843 16.927 41.2502 16.927V18.3333ZM37.3216 33.7719V35.1781C37.9647 35.1781 38.5259 34.7419 38.6845 34.1187L37.3216 33.7719ZM5.89307 15.8799L10.8038 15.8799L10.8038 13.0674L5.89307 13.0674L5.89307 15.8799ZM9.44096 14.8204L10.4231 18.6801L13.1487 17.9865L12.1666 14.1268L9.44096 14.8204ZM10.4231 18.6801L14.3517 34.1187L17.0773 33.4251L13.1487 17.9865L10.4231 18.6801ZM15.7145 32.3656H14.7324V35.1781H15.7145V32.3656ZM14.7324 40.9676H37.3216V38.1551H14.7324V40.9676ZM10.3797 36.6666C10.3797 39.0653 12.352 40.9676 14.7324 40.9676V38.1551C13.8582 38.1551 13.1922 37.4653 13.1922 36.6666H10.3797ZM14.7324 32.3656C12.352 32.3656 10.3797 34.2679 10.3797 36.6666H13.1922C13.1922 35.8679 13.8582 35.1781 14.7324 35.1781V32.3656ZM11.7859 19.7395H41.2502V16.927H11.7859V19.7395ZM39.8874 17.9865L35.9588 33.4251L38.6845 34.1187L42.613 18.6801L39.8874 17.9865ZM37.3216 32.3656H15.7145V35.1781H37.3216V32.3656ZM35.9154 47.2807C35.9154 47.5465 35.6891 47.8042 35.3574 47.8042V50.6167C37.1953 50.6167 38.7279 49.1465 38.7279 47.2807H35.9154ZM35.3574 47.8042C35.0256 47.8042 34.7993 47.5465 34.7993 47.2807H31.9868C31.9868 49.1465 33.5194 50.6167 35.3574 50.6167V47.8042ZM34.7993 47.2807C34.7993 47.0148 35.0256 46.7571 35.3574 46.7571V43.9446C33.5194 43.9446 31.9868 45.4148 31.9868 47.2807H34.7993ZM35.3574 46.7571C35.6891 46.7571 35.9154 47.0148 35.9154 47.2807H38.7279C38.7279 45.4148 37.1953 43.9446 35.3574 43.9446V46.7571ZM16.2725 47.2807C16.2725 47.5465 16.0463 47.8042 15.7145 47.8042V50.6167C17.5524 50.6167 19.085 49.1465 19.085 47.2807H16.2725ZM15.7145 47.8042C15.3827 47.8042 15.1565 47.5465 15.1565 47.2807H12.344C12.344 49.1465 13.8766 50.6167 15.7145 50.6167V47.8042ZM15.1565 47.2807C15.1565 47.0148 15.3827 46.7571 15.7145 46.7571V43.9446C13.8766 43.9446 12.344 45.4148 12.344 47.2807H15.1565ZM15.7145 46.7571C16.0463 46.7571 16.2725 47.0148 16.2725 47.2807H19.085C19.085 45.4148 17.5524 43.9446 15.7145 43.9446V46.7571Z" fill="black"/>
<ellipse cx="40.2678" cy="14.6114" rx="14.7321" ry="14.4737" fill="#FF5964"/>
<path d="M45.5809 20.08V22H36.9649V20.08H40.3729V10.72C40.2289 10.912 40.0049 11.12 39.7009 11.344C39.3969 11.552 39.0529 11.752 38.6689 11.944C38.2849 12.136 37.9009 12.296 37.5169 12.424C37.1329 12.536 36.7809 12.592 36.4609 12.592V10.576C36.8129 10.576 37.1969 10.48 37.6129 10.288C38.0449 10.08 38.4609 9.84 38.8609 9.568C39.2609 9.296 39.5969 9.04 39.8689 8.8C40.1569 8.56 40.3249 8.392 40.3729 8.296H42.5329V20.08H45.5809Z" fill="white"/>
</svg>
