<svg width="55" height="55" viewBox="0 0 55 55" fill="none" xmlns="http://www.w3.org/2000/svg">
<path d="M6.87524 5.46899C6.09859 5.46899 5.46899 6.09859 5.46899 6.87524C5.46899 7.65189 6.09859 8.28149 6.87524 8.28149L6.87524 5.46899ZM12.6044 6.87524L13.9687 6.53418C13.8122 5.90816 13.2497 5.46899 12.6044 5.46899L12.6044 6.87524ZM43.5419 38.0732C44.3186 38.0732 44.9482 37.4436 44.9482 36.6669C44.9482 35.8903 44.3186 35.2607 43.5419 35.2607V38.0732ZM48.1252 11.4586L49.4895 11.7996C49.5945 11.3795 49.5001 10.9345 49.2337 10.5932C48.9672 10.2518 48.5583 10.0523 48.1252 10.0523V11.4586ZM43.5419 29.7919V31.1982C44.1872 31.1982 44.7497 30.759 44.9062 30.133L43.5419 29.7919ZM6.87524 8.28149L12.6044 8.28149L12.6044 5.46899L6.87524 5.46899L6.87524 8.28149ZM11.2401 7.21631L12.386 11.7996L15.1145 11.1175L13.9687 6.53418L11.2401 7.21631ZM12.386 11.7996L16.9693 30.133L19.6978 29.4508L15.1145 11.1175L12.386 11.7996ZM18.3336 28.3857H17.1877V31.1982H18.3336V28.3857ZM17.1877 38.0732H43.5419V35.2607H17.1877V38.0732ZM12.344 33.2294C12.344 35.9045 14.5126 38.0732 17.1877 38.0732V35.2607C16.0659 35.2607 15.1565 34.3512 15.1565 33.2294H12.344ZM17.1877 28.3857C14.5126 28.3857 12.344 30.5543 12.344 33.2294H15.1565C15.1565 32.1076 16.0659 31.1982 17.1877 31.1982V28.3857ZM13.7502 12.8648H48.1252V10.0523H13.7502V12.8648ZM46.761 11.1175L42.1776 29.4508L44.9062 30.133L49.4895 11.7996L46.761 11.1175ZM43.5419 28.3857H18.3336V31.1982H43.5419V28.3857ZM42.1357 45.8336C42.1357 46.3226 41.7392 46.719 41.2502 46.719V49.5315C43.2925 49.5315 44.9482 47.8759 44.9482 45.8336H42.1357ZM41.2502 46.719C40.7612 46.719 40.3648 46.3226 40.3648 45.8336H37.5523C37.5523 47.8759 39.2079 49.5315 41.2502 49.5315V46.719ZM40.3648 45.8336C40.3648 45.3446 40.7612 44.9482 41.2502 44.9482V42.1357C39.2079 42.1357 37.5523 43.7913 37.5523 45.8336H40.3648ZM41.2502 44.9482C41.7392 44.9482 42.1357 45.3446 42.1357 45.8336H44.9482C44.9482 43.7913 43.2925 42.1357 41.2502 42.1357V44.9482ZM19.219 45.8336C19.219 46.3226 18.8226 46.719 18.3336 46.719V49.5315C20.3759 49.5315 22.0315 47.8759 22.0315 45.8336H19.219ZM18.3336 46.719C17.8446 46.719 17.4482 46.3226 17.4482 45.8336H14.6357C14.6357 47.8759 16.2913 49.5315 18.3336 49.5315V46.719ZM17.4482 45.8336C17.4482 45.3446 17.8446 44.9482 18.3336 44.9482V42.1357C16.2913 42.1357 14.6357 43.7913 14.6357 45.8336H17.4482ZM18.3336 44.9482C18.8226 44.9482 19.219 45.3446 19.219 45.8336H22.0315C22.0315 43.7913 20.3759 42.1357 18.3336 42.1357V44.9482Z" fill="black"/>
</svg>
