<svg width="49" height="49" viewBox="0 0 49 49" fill="none" xmlns="http://www.w3.org/2000/svg">
<circle cx="24.5" cy="24.5" r="24" fill="white" stroke="#444444"/>
<path d="M17.746 19.66H13.336V31H11.716V19.66H7.306V18.22H17.746V19.66ZM19.3346 31V21.604H20.9186V31H19.3346ZM19.3346 19.84V17.86H20.9186V19.84H19.3346ZM31.6371 31H30.0531V25.744C30.0531 24.748 29.8971 24.022 29.5851 23.566C29.2851 23.098 28.8231 22.864 28.1991 22.864C27.7671 22.864 27.3351 22.972 26.9031 23.188C26.4831 23.404 26.1051 23.698 25.7691 24.07C25.4451 24.43 25.2111 24.85 25.0671 25.33V31H23.4831V21.604H24.9231V23.62C25.1751 23.176 25.4991 22.792 25.8951 22.468C26.2911 22.144 26.7411 21.892 27.2451 21.712C27.7491 21.532 28.2771 21.442 28.8291 21.442C29.3691 21.442 29.8191 21.544 30.1791 21.748C30.5511 21.94 30.8391 22.216 31.0431 22.576C31.2591 22.924 31.4091 23.338 31.4931 23.818C31.5891 24.298 31.6371 24.82 31.6371 25.384V31ZM34.3565 33.556C34.5125 33.568 34.6685 33.58 34.8245 33.592C34.9805 33.616 35.1005 33.628 35.1845 33.628C35.3765 33.628 35.5445 33.562 35.6885 33.43C35.8325 33.298 35.9885 33.04 36.1565 32.656C36.3365 32.284 36.5645 31.732 36.8405 31L32.8625 21.604H34.5365L37.7045 29.398L40.5665 21.604H42.1325L37.5605 33.466C37.4525 33.742 37.2905 34 37.0745 34.24C36.8705 34.492 36.6065 34.69 36.2825 34.834C35.9585 34.978 35.5685 35.05 35.1125 35.05C35.0045 35.05 34.8905 35.044 34.7705 35.032C34.6625 35.02 34.5245 34.996 34.3565 34.96V33.556Z" fill="black"/>
</svg>
