<svg width="120" height="36" viewBox="0 0 120 36" fill="none" xmlns="http://www.w3.org/2000/svg">
<path d="M21.212 25.696V28H31.688V25.696L29.276 25.408C28.808 25.336 28.7 25.192 28.7 24.724V5.212C28.7 4.672 28.736 4.6 29.276 4.528L31.688 4.24V1.936H23.948L16.46 18.784H16.352L8.972 1.936H0.872V4.276L3.14 4.528C3.644 4.6 3.716 4.708 3.716 5.248V24.724C3.716 25.264 3.644 25.372 3.14 25.444L0.872 25.696V28H11.024V25.696L7.928 25.408C7.388 25.372 7.352 25.264 7.352 24.688V8.164H7.424L13.724 22.24H18.404L24.668 8.344H24.776V24.724C24.776 25.264 24.704 25.408 24.2 25.444L21.212 25.696ZM48.2668 25.804L48.5908 28H54.2788V25.696L52.4068 25.444C52.0108 25.408 51.9388 25.192 51.9388 24.724V9.388H45.8188L45.4948 11.728L47.2228 12.16C47.7628 12.304 47.7988 12.376 47.7988 12.952V22.6C46.6828 23.752 44.8828 25.12 42.7948 25.12C40.7788 25.12 40.3828 23.824 40.3828 21.412V9.388H34.1548L33.8308 11.728L35.6668 12.16C36.2068 12.304 36.2428 12.376 36.2428 12.952V22.312C36.2428 26.452 37.5388 28.432 41.4268 28.432C44.5588 28.432 46.5748 27.028 48.1588 25.768L48.2668 25.804ZM70.046 25.876L70.37 28H76.094V25.696L74.33 25.444C73.79 25.372 73.754 25.3 73.754 24.724V0.819998H67.562L67.202 3.124L69.254 3.808C69.614 3.916 69.722 4.168 69.722 4.528V10.648C68.354 9.64 66.554 9.028 64.394 9.028C60.218 9.028 56.834 11.872 56.834 19.036C56.834 25.768 59.57 28.432 63.71 28.432C66.446 28.432 68.246 27.424 69.83 25.84L70.046 25.876ZM69.614 14.068V22.636C68.354 23.968 66.626 25.048 64.862 25.048C62.45 25.048 61.118 23.356 61.118 18.928C61.118 15.076 62.342 12.34 65.438 12.34C67.022 12.34 68.57 13.204 69.614 14.068ZM91.7726 25.876L92.0966 28H97.8206V25.696L96.0566 25.444C95.5166 25.372 95.4806 25.3 95.4806 24.724V0.819998H89.2886L88.9286 3.124L90.9806 3.808C91.3406 3.916 91.4486 4.168 91.4486 4.528V10.648C90.0806 9.64 88.2806 9.028 86.1206 9.028C81.9446 9.028 78.5606 11.872 78.5606 19.036C78.5606 25.768 81.2966 28.432 85.4366 28.432C88.1726 28.432 89.9726 27.424 91.5566 25.84L91.7726 25.876ZM91.3406 14.068V22.636C90.0806 23.968 88.3526 25.048 86.5886 25.048C84.1766 25.048 82.8446 23.356 82.8446 18.928C82.8446 15.076 84.0686 12.34 87.1646 12.34C88.7486 12.34 90.2966 13.204 91.3406 14.068ZM101.708 33.256V35.632H112.364V33.292L108.764 32.932L117.188 12.556C117.368 12.124 117.62 12.016 118.088 11.944L119.276 11.764V9.388H111.86L111.464 11.764L113.84 12.052L109.376 23.176H109.232L104.732 12.052L107.072 11.764V9.388H98.684L98.216 11.764L99.692 12.088C100.124 12.196 100.268 12.268 100.448 12.7L107.072 27.964L105.236 32.176C105.02 32.68 104.876 32.896 104.264 32.968L101.708 33.256Z" fill="#FF5964"/>
</svg>
