<svg width="49" height="49" viewBox="0 0 49 49" fill="none" xmlns="http://www.w3.org/2000/svg">
<circle cx="24.5" cy="24.5" r="24" fill="white" stroke="#444444"/>
<path d="M28.036 20.902C27.892 20.734 27.7 20.572 27.46 20.416C27.22 20.26 26.95 20.122 26.65 20.002C26.35 19.87 26.02 19.768 25.66 19.696C25.312 19.612 24.946 19.57 24.562 19.57C23.578 19.57 22.852 19.756 22.384 20.128C21.916 20.5 21.682 21.01 21.682 21.658C21.682 22.114 21.802 22.474 22.042 22.738C22.282 23.002 22.648 23.218 23.14 23.386C23.644 23.554 24.28 23.728 25.048 23.908C25.936 24.1 26.704 24.334 27.352 24.61C28 24.886 28.498 25.258 28.846 25.726C29.194 26.182 29.368 26.794 29.368 27.562C29.368 28.174 29.248 28.708 29.008 29.164C28.78 29.608 28.456 29.98 28.036 30.28C27.616 30.568 27.124 30.784 26.56 30.928C25.996 31.06 25.384 31.126 24.724 31.126C24.076 31.126 23.44 31.06 22.816 30.928C22.204 30.784 21.622 30.58 21.07 30.316C20.518 30.052 20.002 29.722 19.522 29.326L20.296 27.958C20.488 28.162 20.734 28.366 21.034 28.57C21.346 28.762 21.694 28.942 22.078 29.11C22.474 29.278 22.9 29.416 23.356 29.524C23.812 29.62 24.28 29.668 24.76 29.668C25.672 29.668 26.38 29.506 26.884 29.182C27.388 28.846 27.64 28.36 27.64 27.724C27.64 27.244 27.496 26.86 27.208 26.572C26.932 26.284 26.518 26.044 25.966 25.852C25.414 25.66 24.742 25.468 23.95 25.276C23.086 25.06 22.36 24.826 21.772 24.574C21.184 24.31 20.74 23.968 20.44 23.548C20.152 23.128 20.008 22.582 20.008 21.91C20.008 21.094 20.206 20.404 20.602 19.84C20.998 19.276 21.544 18.85 22.24 18.562C22.936 18.274 23.722 18.13 24.598 18.13C25.174 18.13 25.708 18.19 26.2 18.31C26.704 18.43 27.172 18.598 27.604 18.814C28.036 19.03 28.432 19.288 28.792 19.588L28.036 20.902Z" fill="black"/>
</svg>
