<svg width="48" height="48" viewBox="0 0 48 48" fill="none" xmlns="http://www.w3.org/2000/svg">
<path d="M6 4.59375C5.22335 4.59375 4.59375 5.22335 4.59375 6C4.59375 6.77665 5.22335 7.40625 6 7.40625L6 4.59375ZM11 6L12.3643 5.65893C12.2078 5.03292 11.6453 4.59375 11 4.59375V6ZM38 33.4062C38.7766 33.4062 39.4062 32.7766 39.4062 32C39.4062 31.2233 38.7766 30.5937 38 30.5937V33.4062ZM42 10L43.3643 10.3411C43.4693 9.92096 43.3749 9.4759 43.1084 9.13458C42.8419 8.79326 42.433 8.59375 42 8.59375V10ZM38 26V27.4062C38.6453 27.4062 39.2078 26.9671 39.3643 26.3411L38 26ZM6 7.40625H11V4.59375H6L6 7.40625ZM9.63574 6.34107L10.6357 10.3411L13.3643 9.65893L12.3643 5.65893L9.63574 6.34107ZM10.6357 10.3411L14.6357 26.3411L17.3643 25.6589L13.3643 9.65893L10.6357 10.3411ZM16 24.5937H15V27.4062H16V24.5937ZM15 33.4062H38V30.5937H15V33.4062ZM10.5937 29C10.5937 31.4335 12.5665 33.4062 15 33.4062V30.5937C14.1198 30.5937 13.4062 29.8802 13.4062 29H10.5937ZM15 24.5937C12.5665 24.5937 10.5937 26.5665 10.5937 29H13.4062C13.4062 28.1198 14.1198 27.4062 15 27.4062V24.5937ZM12 11.4062H42V8.59375H12V11.4062ZM40.6357 9.65893L36.6357 25.6589L39.3643 26.3411L43.3643 10.3411L40.6357 9.65893ZM38 24.5937H16V27.4062H38V24.5937ZM36.5937 40C36.5937 40.3279 36.3279 40.5937 36 40.5937V43.4062C37.8812 43.4062 39.4062 41.8812 39.4062 40H36.5937ZM36 40.5937C35.6721 40.5937 35.4062 40.3279 35.4062 40H32.5937C32.5937 41.8812 34.1188 43.4062 36 43.4062V40.5937ZM35.4062 40C35.4062 39.6721 35.6721 39.4062 36 39.4062V36.5937C34.1188 36.5937 32.5937 38.1188 32.5937 40H35.4062ZM36 39.4062C36.3279 39.4062 36.5937 39.6721 36.5937 40H39.4062C39.4062 38.1188 37.8812 36.5937 36 36.5937V39.4062ZM16.5937 40C16.5937 40.3279 16.3279 40.5937 16 40.5937V43.4062C17.8812 43.4062 19.4062 41.8812 19.4062 40H16.5937ZM16 40.5937C15.6721 40.5937 15.4062 40.3279 15.4062 40H12.5937C12.5937 41.8812 14.1188 43.4062 16 43.4062V40.5937ZM15.4062 40C15.4062 39.6721 15.6721 39.4062 16 39.4062V36.5937C14.1188 36.5937 12.5937 38.1188 12.5937 40H15.4062ZM16 39.4062C16.3279 39.4062 16.5937 39.6721 16.5937 40H19.4062C19.4062 38.1188 17.8812 36.5937 16 36.5937V39.4062Z" fill="black"/>
</svg>
